<svg xmlns="http://www.w3.org/2000/svg" width="15" height="12" viewBox="0 0 15 12">
  <defs>
    <style>
      .cls-1 {
        fill: #aa9b77;
        fill-rule: evenodd;
      }
    </style>
  </defs>
  <path id="fa-check" class="cls-1" d="M116,858.343a1,1,0,0,0-.271-0.687l-1.316-1.374a0.908,0.908,0,0,0-1.317,0l-6.349,6.637-2.846-2.98a0.906,0.906,0,0,0-1.316,0l-1.317,1.374a1.006,1.006,0,0,0,0,1.374l3.5,3.656,1.317,1.374a0.906,0.906,0,0,0,1.316,0l1.316-1.374,7.008-7.313A1,1,0,0,0,116,858.343Z" transform="translate(-101 -856)"/>
</svg>
