<svg xmlns="http://www.w3.org/2000/svg" width="29" height="24" viewBox="0 0 29 24">
  <defs>
    <style>
      .cls-1 {
        fill: #424242;
        fill-rule: evenodd;
      }
    </style>
  </defs>
  <path id="fa-twitter" class="cls-1" d="M93.005,1668.85a11.677,11.677,0,0,1-3.424.94,6.015,6.015,0,0,0,2.614-3.34,11.38,11.38,0,0,1-3.774,1.46,5.884,5.884,0,0,0-4.344-1.91,6,6,0,0,0-5.946,6.06,6.976,6.976,0,0,0,.147,1.39,16.846,16.846,0,0,1-12.26-6.34,6.14,6.14,0,0,0,1.841,8.1,5.939,5.939,0,0,1-2.688-.77v0.07a6.038,6.038,0,0,0,4.768,5.95,6.231,6.231,0,0,1-1.565.2,6.915,6.915,0,0,1-1.123-.09,5.976,5.976,0,0,0,5.559,4.2,11.78,11.78,0,0,1-7.382,2.59,11.324,11.324,0,0,1-1.436-.08,16.54,16.54,0,0,0,9.131,2.72c10.934,0,16.917-9.22,16.917-17.23,0-.26,0-0.52-0.018-0.79A12.863,12.863,0,0,0,93.005,1668.85Z" transform="translate(-64 -1666)"/>
</svg>
