<svg xmlns="http://www.w3.org/2000/svg" width="12" height="8" viewBox="0 0 12 8"><defs><style>.cls-1{fill-rule:evenodd}</style></defs><path id="fa-angle-down_copia" data-name="fa-angle-down copia" class="cls-1" d="M556 1047.15a.514.514 0 0 0-.12-.32l-.6-.69a.359.359 0 0 0-.553 0l-4.727 5.4-4.726-5.4a.4.4 0 0 0-.277-.13.374.374 0 0 0-.277.13l-.6.69a.514.514 0 0 0-.12.32.487.487 0 0 0 .12.31l5.605 6.4a.343.343 0 0 0 .553 0l5.605-6.4a.487.487 0 0 0 .117-.31z" transform="translate(-544 -1046)"/></svg>